<svg xmlns="http://www.w3.org/2000/svg" viewBox="0 0 512 512">
  <defs>
    <linearGradient id="bg" x1="0" y1="0" x2="0" y2="1">
      <stop offset="0%" stop-color="#9a6aed"/>
      <stop offset="100%" stop-color="#6b3fbf"/>
    </linearGradient>
    <linearGradient id="shine" x1="0" y1="0" x2="0" y2="1">
      <stop offset="0%" stop-color="rgba(255,255,255,0.15)"/>
      <stop offset="50%" stop-color="rgba(255,255,255,0)"/>
    </linearGradient>
    <clipPath id="rounded">
      <rect width="512" height="512" rx="112"/>
    </clipPath>
  </defs>

  <g clip-path="url(#rounded)">
    <!-- Background -->
    <rect width="512" height="512" fill="url(#bg)"/>
    <rect width="512" height="512" fill="url(#shine)"/>

    <!-- GitHub PR merged icon (scaled from 16x16 to fit) -->
    <g transform="translate(86, 96) scale(20)">
      <path fill="white" d="M5.45 5.154A4.25 4.25 0 0 0 9.25 7.5h1.378a2.251 2.251 0 1 1 0 1.5H9.25A5.734 5.734 0 0 1 5 7.123v3.505a2.25 2.25 0 1 1-1.5 0V5.372a2.25 2.25 0 1 1 1.95-.218ZM4.25 13.5a.75.75 0 1 0 0-1.5.75.75 0 0 0 0 1.5Zm8.5-4.5a.75.75 0 1 0 0-1.5.75.75 0 0 0 0 1.5ZM5 3.25a.75.75 0 1 0 0 .005V3.25Z"/>
    </g>
  </g>
</svg>
